<?xml version="1.0" standalone="no"?>
<!DOCTYPE svg PUBLIC "-//W3C//DTD SVG 20010904//EN"
 "http://www.w3.org/TR/2001/REC-SVG-20010904/DTD/svg10.dtd">
<svg version="1.0" xmlns="http://www.w3.org/2000/svg"
 width="202.000000pt" height="202.000000pt" viewBox="0 0 202.000000 202.000000"
 preserveAspectRatio="xMidYMid meet">
<metadata>
Created by potrace 1.14, written by Peter Selinger 2001-2017
</metadata>
<g transform="translate(0.000000,202.000000) scale(0.100000,-0.100000)"
fill="#000000" stroke="none">
<path d="M373 2003 l-363 -3 0 -995 0 -995 1000 0 1000 0 0 888 c0 488 -3 938
-7 1000 l-6 112 -631 -2 c-347 -2 -794 -4 -993 -5z m873 -686 c87 -44 136
-118 155 -236 27 -162 -40 -319 -160 -377 -53 -26 -171 -31 -228 -9 -86 33
-161 131 -178 233 l-7 42 -59 0 -58 0 -3 -142 -3 -143 -37 -3 -38 -3 0 330 0
331 40 0 40 0 0 -150 0 -150 59 0 58 0 7 46 c16 119 97 220 206 255 48 16 152
4 206 -24z"/>
<path d="M1035 1256 c-44 -20 -92 -75 -110 -125 -24 -69 -20 -195 9 -256 54
-115 163 -155 272 -100 149 74 168 348 31 459 -33 26 -48 31 -105 33 -42 2
-78 -2 -97 -11z"/>
</g>
</svg>
